<svg id="CYGNUS" xmlns="http://www.w3.org/2000/svg" viewBox="0 0 1006.44 163.59"><defs><style>.cls-1{stroke:#000;stroke-miterlimit:10;stroke-width:7px;}</style></defs><path class="cls-1" d="M3095.68,1698.53V1650c0-31.94,17.08-54.12,52.57-54.12h49.46c35.49,0,52.57,22.18,52.57,54.12,0,4-2.44,6.21-6.65,6.21h-26.18c-4.21,0-6.65-1.33-6.65-3.77v-3.77c0-13.53-4.66-15.08-13.09-15.08h-49.46c-8.43,0-13.09,1.55-13.09,15.08v51.24c0,13.3,5.33,14.86,13.09,14.86h49.46c7.76,0,13.09-1.56,13.09-14.86v-3.33c0-4.21,2.44-6.65,6.65-6.65h26.18c4.21,0,6.65,1.55,6.65,4.21v4.44c0,31.71-17.08,53.89-52.57,53.89h-49.46C3112.76,1752.42,3095.68,1730.24,3095.68,1698.53Z" transform="translate(-3092.18 -1592.33)"/><path class="cls-1" d="M3314.16,1745.77V1709l-63.44-105.13c-2.66-4.66-.88-8,4.44-8h30.39a8.26,8.26,0,0,1,8,4.66l40.37,71.42,40.81-71.42a8.26,8.26,0,0,1,8-4.66h29.94c5.32,0,7.1,3.33,4.43,8L3353.64,1709v36.82c0,4.21-2.44,6.65-6.65,6.65h-26.18C3316.6,1752.42,3314.16,1750,3314.16,1745.77Z" transform="translate(-3092.18 -1592.33)"/><path class="cls-1" d="M3418,1698.53V1650c0-31.94,17.08-54.12,52.57-54.12h51.68c32.83,0,49.91,18,52.35,45.91.22,4.44-2.44,6.88-6.66,6.88h-26.17c-4.21,0-6.21-2.22-6.88-6.65-1.55-7.32-5.76-8.43-12.64-8.43h-51.68c-8.43,0-13.09,1.55-13.09,15.08v51.24c0,13.3,5.33,14.86,13.09,14.86h51.68c7.76,0,13.09-1.56,13.09-14.86v-5.11h-28.39c-4.22,0-6.66-2.43-6.66-6.65v-20.63c0-4.21,2.44-6.65,6.66-6.65h61.21c4.22,0,6.66,2.44,6.66,6.65v31.06c0,31.71-17.08,53.89-52.57,53.89h-51.68C3435,1752.42,3418,1730.24,3418,1698.53Z" transform="translate(-3092.18 -1592.33)"/><path class="cls-1" d="M3596.63,1745.77V1602.49c0-4.22,2.44-6.66,6.65-6.66h25.51a9.87,9.87,0,0,1,8.2,4l72.09,92v-89.38c0-4.22,2.44-6.66,6.65-6.66h26.18c4.21,0,6.65,2.44,6.65,6.66v143.28c0,4.21-2.44,6.65-6.65,6.65H3716.4a9.9,9.9,0,0,1-8.21-4l-72.08-91.6v88.94c0,4.21-2.44,6.65-6.66,6.65h-26.17C3599.07,1752.42,3596.63,1750,3596.63,1745.77Z" transform="translate(-3092.18 -1592.33)"/><path class="cls-1" d="M3770.85,1698.53v-96c0-4.22,2.44-6.66,6.65-6.66h26.18c4.21,0,6.65,2.44,6.65,6.66v97.37c0,13.3,5.32,14.86,13.09,14.86h51.68c7.76,0,13.08-1.56,13.08-14.86v-97.37c0-4.22,2.44-6.66,6.66-6.66H3921c4.21,0,6.65,2.44,6.65,6.66v96c0,31.71-17.07,53.89-52.56,53.89h-51.68C3787.93,1752.42,3770.85,1730.24,3770.85,1698.53Z" transform="translate(-3092.18 -1592.33)"/><path class="cls-1" d="M3945.18,1706.51c-.22-4.43,2.44-6.88,6.66-6.88h26.39c4,0,5.77,2.22,6.88,6.44,1.55,6,5.54,8.65,12.42,8.65h44.58c9.76,0,14-2.66,14-10.65,0-8.21-3.54-10.87-12.64-11.53l-50.13-3.77c-33.93-2.66-47.24-15.31-47.24-44.81,0-30.16,15.08-48.13,52.57-48.13h41.7c33.49,0,50.12,16.41,52.34,45.91.22,4.44-2.44,6.88-6.65,6.88h-26.4c-4,0-5.76-2.22-6.87-6.43-1.56-6-5.55-8.65-12.42-8.65h-41.26c-9.76,0-14,2.66-14,10.64s3.55,10.65,12.64,11.32l50.13,3.77c33.71,2.44,47.24,15.74,47.24,45,0,30.17-15.08,48.13-52.57,48.13h-45C3964,1752.42,3947.4,1736,3945.18,1706.51Z" transform="translate(-3092.18 -1592.33)"/></svg>