<svg id="Image_75" data-name="Image 75" xmlns="http://www.w3.org/2000/svg" viewBox="0 0 763.66 206.88"><defs><style>.cls-1{stroke:#000;stroke-miterlimit:10;stroke-width:5px;}</style></defs><path d="M755.86,669.05V630.44h-5.58V619.1h5.58V617c0-8.28,3.24-15.84,19.17-15.84h2.07v11.25h-.54c-3.87,0-5.76,1-5.76,5.13v1.53h6.3v11.34h-6.3v38.61Z" transform="translate(-159.24 -463.79)"/><path d="M806.3,670.58c-15.21,0-26.91-11.25-26.91-26.55,0-15.48,12-26.55,26.91-26.55s26.91,11.25,26.91,26.37C833.21,659.51,821.33,670.58,806.3,670.58Zm12-26.55c0-6.66-5-12.6-12.06-12.6-6.57,0-11.88,5.76-11.88,12.6s5.22,12.6,12,12.6C813.32,656.63,818.27,650.69,818.27,644Z" transform="translate(-159.24 -463.79)"/><path d="M872.25,669.05v-5.31h-.18c-2.16,4.59-6.12,6.93-12.87,6.93-10.53,0-19.26-6.3-19.26-20.52v-31h14.94v28c0,6.57,2.34,9.63,8,9.63s8.55-3.78,8.55-9.9V619.1h14.94v49.95Z" transform="translate(-159.24 -463.79)"/><path d="M896.18,669.05V619.1h14v5.31h.18c2.61-5.31,6.75-7,12.51-7v15c-8.91.09-11.79,3.42-11.79,9.09v27.54Z" transform="translate(-159.24 -463.79)"/><path class="cls-1" d="M161.74,605.78V468.88h46.62c17,0,30.53,3,40.15,8.32,19.42,11.1,31.63,32.19,31.63,60.13,0,45.14-26.64,68.45-69.37,68.45Zm50.69-30.71c20.17,0,32.75-12.58,32.75-37.56,0-24.42-12.4-37.92-32.56-37.92H196.71v75.48Z" transform="translate(-159.24 -463.79)"/><path class="cls-1" d="M282.08,540.47c0-42.36,30.53-74.18,72.15-74.18,40,0,72.34,30.89,72.34,70.11,0,40.52-31.45,72-70.67,72C317.79,608.37,282.08,581,282.08,540.47Zm109.52-3c0-21.46-15.35-40.51-37.37-40.51-21.83,0-37.18,18.31-37.18,40,0,22.57,15.35,40.7,37.74,40.7C376.43,577.66,391.6,559.34,391.6,537.51Z" transform="translate(-159.24 -463.79)"/><path class="cls-1" d="M495.39,605.78l-31.64-44.22h-.37v44.22H429.9V468.88h44.77c14.24,0,25.16,1.85,32.37,5,14.8,6.66,25.16,22.76,25.16,42.18,0,21.65-13,39.41-34,43.11l37.19,46.62ZM476.33,537.7c13.88,0,22.39-6.48,22.39-19.61,0-11.84-8.88-18.5-22-18.5H463.38V537.7Z" transform="translate(-159.24 -463.79)"/><path class="cls-1" d="M606.94,605.78V586H567.35l-12,19.8h-42l94-136.9h34.6v136.9Zm0-85.47h-.37L584,558.23h22.94Z" transform="translate(-159.24 -463.79)"/><path class="cls-1" d="M655.5,605.78V468.88h46.62c17,0,30.53,3,40.15,8.32,19.42,11.1,31.63,32.19,31.63,60.13,0,45.14-26.64,68.45-69.37,68.45Zm50.69-30.71c20.17,0,32.75-12.58,32.75-37.56,0-24.42-12.4-37.92-32.56-37.92H690.47v75.48Z" transform="translate(-159.24 -463.79)"/><path class="cls-1" d="M775.84,540.47c0-42.36,30.53-74.18,72.15-74.18,40,0,72.34,30.89,72.34,70.11,0,40.52-31.45,72-70.67,72C811.55,608.37,775.84,581,775.84,540.47Zm109.52-3C885.36,516.05,870,497,848,497c-21.83,0-37.18,18.31-37.18,40,0,22.57,15.35,40.7,37.74,40.7C870.19,577.66,885.36,559.34,885.36,537.51Z" transform="translate(-159.24 -463.79)"/></svg>