<svg id="Image_61" data-name="Image 61" xmlns="http://www.w3.org/2000/svg" viewBox="0 0 796.7 223.74"><defs><style>.cls-1,.cls-2{fill:#fff;}.cls-1{stroke:#fff;stroke-miterlimit:10;stroke-width:0.5px;}</style></defs><path id="BG" d="M140.21,602.64c-.52,3.31.67,4.06,2.85,6.85L158,628.59a8.79,8.79,0,0,1,2,7.74l-6.44,36.54c-.54,3.42.67,5.84,4.58,5.84H328.49c5,0,5.77-1.84,6.41-5l7-39.52a2,2,0,0,1,1.95-1.69H899.74c5.29,0,7.57-.86,8.59-6.81l28.34-161.9a7.49,7.49,0,0,0-7.38-8.79H173.09a8.19,8.19,0,0,0-8.07,6.79Z" transform="translate(-140.09 -454.97)"/><g id="MESH"><path class="cls-1" d="M176.26,632.71h13.09l1.59,19.6,8.47-19.6h13.08l-5.68,32.21h-8.15L203,640.35l-10.61,24.57H185l-1.94-24.57-4.33,24.57h-8.15Z" transform="translate(-140.09 -454.97)"/><path class="cls-1" d="M223.25,632.71h26.68l-1.22,6.87H232l-.9,5.12H246.6l-1.16,6.57H230l-1.12,6.35H246l-1.29,7.3H217.57Z" transform="translate(-140.09 -454.97)"/><path class="cls-1" d="M254.37,654.26l9.58-.59a6.24,6.24,0,0,0,.63,3.51,4.36,4.36,0,0,0,4.05,2,5.57,5.57,0,0,0,3.46-1,3.69,3.69,0,0,0,1.56-2.32,2.48,2.48,0,0,0-.7-2.24q-.93-1-4.77-1.87-6.29-1.47-8.65-3.91a6.73,6.73,0,0,1-1.71-6.22,10,10,0,0,1,2.26-4.69,12.27,12.27,0,0,1,4.94-3.47,22.06,22.06,0,0,1,8.15-1.26c4.11,0,7.12.76,9,2.29s2.75,4,2.57,7.31l-9.48.55a4.22,4.22,0,0,0-1-3.17,4.34,4.34,0,0,0-3.13-1,4.55,4.55,0,0,0-2.74.73,2.8,2.8,0,0,0-1.2,1.79,1.51,1.51,0,0,0,.48,1.39,6.89,6.89,0,0,0,3.13,1.18,35.8,35.8,0,0,1,8.85,2.85,7.56,7.56,0,0,1,3.48,3.57,8.24,8.24,0,0,1,.45,4.77,12.28,12.28,0,0,1-2.72,5.71,14,14,0,0,1-5.49,4,21.22,21.22,0,0,1-8,1.35q-8.22,0-10.82-3.17A10.64,10.64,0,0,1,254.37,654.26Z" transform="translate(-140.09 -454.97)"/><path class="cls-1" d="M296.71,632.71h10l-2,11.27h10.88l2-11.27h10l-5.68,32.21h-10l2.29-13H303.28l-2.3,13H291Z" transform="translate(-140.09 -454.97)"/></g><g id="ORION"><path class="cls-2" d="M320.52,486.37a5.27,5.27,0,0,1,1,3.79L299.77,613.42a2.87,2.87,0,0,1-2.5,2H176.5c-1.32,0-2.91-.33-3.59-1.16l-12.82-16.17a4.08,4.08,0,0,1-1.07-3.3l21.79-123.58a2.86,2.86,0,0,1,2.52-2.14H304.11a5.06,5.06,0,0,1,3.5,1.65ZM261,549.89a2.78,2.78,0,0,0,2.82-2l7-39.6c.24-1.32-.77-2.14-2.09-2.14h-21a2.45,2.45,0,0,0-2.52,2.14l-7,39.6c-.21,1.16.47,2,1.79,2Z" transform="translate(-140.09 -454.97)"/><path class="cls-2" d="M408.31,579.92a2.38,2.38,0,0,0-2.13-2h-6.93a2.41,2.41,0,0,0-2.49,2l-5.91,33.5c-.2,1.15-1.26,2.47-2.41,2.47H321.61a1.94,1.94,0,0,1-1.71-2.47L345,471.19a2.88,2.88,0,0,1,2.53-2.14H468.28a5,5,0,0,1,3.5,1.65l12.92,15.67a5.27,5.27,0,0,1,1,3.79l-15.1,85.64a2.47,2.47,0,0,1-2.53,2.14h-5.77c-1.16,0-1.8.83-2,2l4.63,32.67c.54,1.65-1.07,3.3-2.72,3.3H415.66c-1.32,0-2.24-1.32-2.59-2.14Zm-1.54-56.76c-.21,1.16.47,2,1.79,2h21a2.4,2.4,0,0,0,2.49-2l3.05-17.32c.24-1.32-.38-2.48-1.7-2.48h-21a2.82,2.82,0,0,0-2.58,2.48Z" transform="translate(-140.09 -454.97)"/><path class="cls-2" d="M560.29,615.4H488a1.57,1.57,0,0,1-1.63-2l25.08-142.23a2.84,2.84,0,0,1,2.36-2.14h72.26c.83,0,1.75,1.31,1.61,2.14L562.62,613.42A2.68,2.68,0,0,1,560.29,615.4Z" transform="translate(-140.09 -454.97)"/><path class="cls-2" d="M749.36,486.37a5.31,5.31,0,0,1,1,3.79L728.6,613.42a2.86,2.86,0,0,1-2.49,2H605.33c-1.32,0-2.91-.33-3.59-1.16l-12.82-16.17a4.12,4.12,0,0,1-1.07-3.3l21.79-123.58a2.88,2.88,0,0,1,2.53-2.14H732.94a5.06,5.06,0,0,1,3.5,1.65Zm-59.55,63.52a2.8,2.8,0,0,0,2.83-2l7-39.6c.23-1.32-.78-2.14-2.1-2.14H676.57a2.47,2.47,0,0,0-2.53,2.14l-7,39.6a1.61,1.61,0,0,0,1.8,2Z" transform="translate(-140.09 -454.97)"/><path class="cls-2" d="M916.92,469.05a1.93,1.93,0,0,1,1.7,2.47l-25,141.9a2.41,2.41,0,0,1-2.49,2H847.88a4,4,0,0,1-3-1.65l-16.08-38c-.12-1.16-1.5-.83-1.73.49l-6.55,37.13a2.36,2.36,0,0,1-2.33,2H751.69a1.57,1.57,0,0,1-1.63-2l25-141.9c.2-1.16,1.26-2.47,2.42-2.47h66.82a3.2,3.2,0,0,1,2.92,2.14l15.58,37.95c.35.82,1.59.33,1.74-.5l6.55-37.12a2.94,2.94,0,0,1,2.58-2.47Z" transform="translate(-140.09 -454.97)"/></g></svg>