<svg id="Image_95" data-name="Image 95" xmlns="http://www.w3.org/2000/svg" viewBox="0 0 885.53 406.76"><g id="Image_85" data-name="Image 85"><g id="Image_84" data-name="Image 84"><g id="_5_Image" data-name="5 Image"><path d="M673.77,700.94l1.43-17.32a4.13,4.13,0,0,1,3.78-3.77c9-.7,17.84-1.25,26.59-2.27,39.65-4.66,77.67-14.31,110.57-38.31,22.5-16.41,38.11-37.51,42.55-65.73,2.16-13.7,2.15-27.3-3.15-40.34-9.4-23.13-28-34.43-51.57-38.4-24.65-4.15-49.18-1.21-73.63,2.41-2.9.42-5.79,1-9.39,1.59a2.67,2.67,0,0,1-3.05-3.29l50.69-193.83a4.13,4.13,0,0,1,4-3.08H976.81c7.45,0,7.55.05,5.5,7.27C976.74,325.55,971,345.2,965.67,365c-1,3.85-2.63,4.8-6.43,4.79q-83-.19-166.07-.09h-3.36a4.13,4.13,0,0,0-4,3c-5.4,19.62-10.79,39.2-16.34,59.32a4.14,4.14,0,0,0,4.34,5.22l1.18-.11c32.56-3.39,65.14-5.87,97.5,1.52,23.33,5.32,43.75,15.91,59.47,34.44,16.57,19.51,21.95,42.41,18.79,67.25-6.7,52.81-35.14,91.39-79.76,118.86-31.62,19.47-66.44,30.46-102.6,37.59-29.86,5.89-60.09,8-90.46,8.58h0A4.08,4.08,0,0,1,673.77,700.94Z" transform="translate(-97.92 -298.59)"/></g></g></g><g id="SOL4"><g id="A"><g id="SOL_Image-2" data-name="SOL Image"><path d="M533.75,515c-.66,60.16-37.89,116.39-91.21,137a123.4,123.4,0,0,1-72.12,5.79c-36.64-8-62.53-34.73-66-72.26-5.55-60.51,16.23-109.79,67.33-143.6,33-21.84,69.82-25.43,107.22-12.13,31.09,11.05,47.85,34.68,53.11,66.78C533.09,502.7,533.22,508.89,533.75,515Zm-58.66-10.81a89.1,89.1,0,0,0-.15-14.61,160.2,160.2,0,0,0-2.08-16.22c-3.53-18.19-14.18-29-29-30.6q-24.68-2.6-42.32,14.79c-10.18,10-17.09,22.13-22.12,35.28a262.34,262.34,0,0,0-17.78,99.61c.2,9.93,2.72,20.11,5.87,29.62,3.46,10.5,11.81,17,23,18.35,17.48,2.16,33-2.52,45.79-15A84.91,84.91,0,0,0,455,597.38C467.41,568,472.69,537.19,475.09,504.22Z" transform="translate(-97.92 -298.59)"/><path d="M111,580.29a6,6,0,0,1,7.07,2.72c4.81,8.44,9.27,16.56,14.24,24.35a81.3,81.3,0,0,0,23.58,24.16c22.43,15,50.86,11.82,68.17-7.5a35.42,35.42,0,0,0,9.29-20c.91-7.94-1.16-15-7.9-19.25a141.26,141.26,0,0,0-22.27-10.89c-12.33-5-25-9.12-37.36-14a104.23,104.23,0,0,1-15.51-8c-28.14-17.1-37.84-42.6-26.89-73.62,11.17-31.67,34.71-49.06,67.37-54.56,14.78-2.49,29.5-1.12,43.14,4.84,11.61,5.07,21.28,2.46,31-3.84,7.15-4.62,10.74-2.72,11.61,6.14,1.82,18.54,4,37.05,7.41,55.37.84,4.5-.06,6.6-4.19,7.59-2.86.69-5.67,1.59-8.56,2.55a6.15,6.15,0,0,1-7.45-3.12l-.54-1.08c-7.86-16.12-18.17-30.29-33.16-40.52-15.74-10.75-32.45-12.52-49.55-3.65-11.06,5.74-16.62,15.47-17.37,27.89-.39,6.49,2,12.08,7.31,15.55a94.23,94.23,0,0,0,17.61,9.12c14.6,5.58,29.49,10.37,44.12,15.86a104.1,104.1,0,0,1,16.1,7.93c27.72,16.33,37.28,40.47,28.53,71.46C267.45,629,235.33,655.88,201,659.89A104,104,0,0,1,151.93,654c-10.63-4-20.38-3.67-30.28,1.43-2.65,1.36-5.47,2.42-8.26,3.52a6,6,0,0,1-8.42-5.18c-2.29-21.19-4.46-42.39-6.94-63.55-.52-4.48.62-6.67,5.13-7.62A67.67,67.67,0,0,0,111,580.29Z" transform="translate(-97.92 -298.59)"/><path d="M676.67,441.91a4.71,4.71,0,0,1-4.68,3.85c-1.75,0-3.46,0-5.17.06-13,.62-19.64,5.66-22.68,18.37-2.4,10-4,20.23-5.83,30.38q-10.9,61.7-21.7,123.4c-.23,1.31-.37,2.64-.54,4-1.47,11.6,0,13.45,11.85,13.94,23.11,1,43.66-7,62.3-19.6,12.92-8.72,24.9-18.93,36.67-29.2,4.93-4.3,8.13-.82,11.44.88,3.15,1.61,3.65,5.08,1.89,8.66-9.17,18.67-18.17,37.43-27.45,56a6.49,6.49,0,0,1-4.82,3q-88.23.23-176.48.11c-4.43,0-6.94-2.9-6.54-7.27,0-.16,0-.33.05-.49,1.11-9.85,1.11-9.85,10.93-10.33,13.35-.66,20.37-6,23-19.25,4.4-22,8.12-44.19,12-66.3q7.34-41.3,14.5-82.6a82.09,82.09,0,0,0,1.07-8.42c.63-9.1-2.27-12.93-11.17-14.66a65.87,65.87,0,0,0-7.45-.67,6.43,6.43,0,0,1-6-6.93c.63-11.1.63-11.1,11.68-11.1h96.49c6.34,0,8.75,2.88,7.59,9C677.33,438.37,677,440.1,676.67,441.91Z" transform="translate(-97.92 -298.59)"/></g></g></g></svg>