<svg id="VELA_copy" data-name="VELA copy" xmlns="http://www.w3.org/2000/svg" viewBox="0 0 778 213"><path d="M871,1785.5v30h-34.5a106.09,106.09,0,0,1-71-27.12,103.54,103.54,0,0,1-8.38-8.38A106.09,106.09,0,0,1,730,1709V1602.5h30V1709a76.44,76.44,0,0,0,76.5,76.5Z" transform="translate(-304.03 -1602.5)"/><path d="M871,1746.5v33h-34.5A70.46,70.46,0,0,1,766,1709V1602.5h33V1709a37.54,37.54,0,0,0,37.5,37.5Z" transform="translate(-304.03 -1602.5)"/><path d="M692.3,1746.5h32.94a105.94,105.94,0,0,1-20.33,33.5,103.54,103.54,0,0,1-8.38,8.38,106.39,106.39,0,0,1-142,0,103.54,103.54,0,0,1-8.38-8.38,106.39,106.39,0,0,1,0-142,103.54,103.54,0,0,1,8.38-8.38,106.39,106.39,0,0,1,142,0,103.54,103.54,0,0,1,8.38,8.38A105.8,105.8,0,0,1,726,1673.5c.46,1.31.86,2.53,1.23,3.71l-63.29,63.29H636.38l57.23-57.2,3-3-1.79-3.82c-.93-2-1.94-3.9-3-5.75a76.48,76.48,0,1,0-28,104.52c2-1.19,4.07-2.49,6-3.86l1-.73c.37-.25.74-.53,1.18-.88l.63-.5c.35-.26.72-.54,1.11-.86l.74-.62,1.44-1.22.21-.19c.47-.41,1-.87,1.52-1.38l.45-.43c.52-.48,1-.92,1.4-1.35.11-.11.22-.21.32-.33.29-.28.56-.56.84-.85l.26-.27.8-.85c.71-.77,1.38-1.53,2-2.29.42-.48.8-.94,1.13-1.35l0-.06c.48-.58,1-1.19,1.43-1.8.94-1.24,1.75-2.37,2.51-3.49.41-.61,1-1.43,1.51-2.3Z" transform="translate(-304.03 -1602.5)"/><path d="M685.24,1746.5c-.44.71-.9,1.4-1.37,2.09-.74,1.09-1.51,2.15-2.3,3.19-.44.57-.88,1.13-1.33,1.68s-.69.85-1.06,1.26c-.62.74-1.26,1.46-1.92,2.17l-.67.72c-.37.38-.73.76-1.11,1.13l-.26.27c-.43.43-.87.85-1.31,1.26l-.39.37c-.46.43-.92.85-1.39,1.26l-.2.18c-.44.39-.89.77-1.34,1.14-.21.18-.42.36-.64.53s-.68.55-1,.81l-.64.5c-.34.27-.68.53-1,.77s-.62.46-.93.68q-2.69,1.9-5.54,3.56a70.51,70.51,0,1,1,25.82-96.32c1,1.71,1.92,3.49,2.77,5.3l-61.45,61.43c-.45,0-.89,0-1.33,0l-.45,0c-.4,0-.79-.06-1.18-.1s-.65-.07-1-.12h-.08l-1.08-.16-.4-.07c-.35-.06-.69-.12-1-.2s-.85-.18-1.28-.29c-.65-.16-1.3-.34-1.94-.55l-.85-.28a2.29,2.29,0,0,1-.28-.09q-.6-.21-1.2-.45l-.22-.09c-.37-.15-.73-.3-1.09-.47a1.56,1.56,0,0,1-.33-.14c-.43-.19-.86-.4-1.28-.62s-.87-.45-1.29-.68l-.08,0c-.44-.25-.88-.51-1.31-.79l-.09,0c-.34-.21-.68-.43-1-.67a3.51,3.51,0,0,1-.4-.27c-.34-.23-.67-.48-1-.73a.75.75,0,0,1-.17-.14c-.3-.22-.59-.45-.88-.7-.5-.39-1-.81-1.46-1.25l47.89-47.89-1.06-1.06a37.51,37.51,0,0,0-54.08,52l1,1.08c.34.34.68.67,1,1l1,.92h0l1,.88q1.11.89,2.28,1.68c.76.53,1.54,1,2.34,1.48.4.24.81.46,1.21.67s.79.41,1.18.6l.09,0a37.52,37.52,0,0,0,6.42,2.39c.89.25,1.79.45,2.7.62a8.52,8.52,0,0,0,.88.16l.89.14c.29.05.59.09.89.12l1,.11c.25,0,.51.05.76.06l.33,0,1.35.07h60.75Z" transform="translate(-304.03 -1602.5)"/><path d="M517,1604.62V1709a106.09,106.09,0,0,1-27.12,71,103.54,103.54,0,0,1-8.38,8.38,106.09,106.09,0,0,1-71,27.12H304V1673.62l30-30V1785.5h76.5A76.46,76.46,0,0,0,487,1709v-74.38Z" transform="translate(-304.03 -1602.5)"/><path d="M481,1640.62V1709a70.46,70.46,0,0,1-70.5,70.5H340V1637.62l33-33V1746.5h37.5A37.54,37.54,0,0,0,448,1709v-35.38Z" transform="translate(-304.03 -1602.5)"/><path d="M1082,1709v35.38l-30,30V1709a76.54,76.54,0,1,0-103.29,71.67c1.47.55,2.91,1,4.3,1.46.61.19,1.21.36,1.8.52,1,.28,2,.54,3,.79l.19,0,.93.2,1,.22.39.09.1,0c.85.17,1.61.3,2.32.41h0c.33.06.69.12,1.1.17s.84.14,1.3.19.68.1,1,.13l1.49.17c.47.05.95.1,1.45.13l-25.44,25.44c-1.18-.37-2.41-.77-3.71-1.23a106,106,0,0,1-35.5-21.06,103.54,103.54,0,0,1-8.38-8.38,106.43,106.43,0,0,1,0-142,103.54,103.54,0,0,1,8.38-8.38,106.39,106.39,0,0,1,142,0,103.54,103.54,0,0,1,8.38,8.38,106.09,106.09,0,0,1,27.12,71Z" transform="translate(-304.03 -1602.5)"/><path d="M1046,1709v71.38l-33,33V1709a37.5,37.5,0,1,0-37.5,37.5h32.38l-30.22,30.22-2.77,2.77h-.6a5.81,5.81,0,0,1-.59,0c-.25,0-.49,0-.74,0l-1.12,0-1.36-.08-.79-.07c-.46,0-.91-.07-1.36-.12l-1.42-.16c-.28,0-.55-.06-.82-.11-.43,0-.85-.11-1.28-.19s-.71-.1-1.07-.16c-.7-.11-1.4-.24-2.1-.38l-1.37-.3-1-.23c-.94-.22-1.87-.46-2.8-.73-.56-.15-1.11-.31-1.66-.48-1.34-.41-2.66-.86-4-1.34a70.16,70.16,0,0,1-10.56-5A70.52,70.52,0,1,1,1046,1709Z" transform="translate(-304.03 -1602.5)"/></svg>